<svg height="1054" width="720" xmlns="http://www.w3.org/2000/svg">
<rect height="1054" fill="#555" width="720"></rect>
<text fill="#7f7" font-family="Courier New" font-size="12" xml:space="preserve">
<tspan x="10" y="26">3 megabytes installed</tspan>
<tspan x="10" y="42"></tspan>
<tspan x="10" y="58">node_modules</tspan>
<tspan x="10" y="74">└─┬ doctoc@1.3.0 </tspan>
<tspan x="10" y="90">  ├─┬ anchor-markdown-header@0.5.7 </tspan>
<tspan x="10" y="106">  │ └── emoji-regex@6.1.3 </tspan>
<tspan x="10" y="122">  ├─┬ htmlparser2@3.9.2 </tspan>
<tspan x="10" y="138">  │ ├── domelementtype@1.3.0 </tspan>
<tspan x="10" y="154">  │ ├── domhandler@2.3.0 </tspan>
<tspan x="10" y="170">  │ ├─┬ domutils@1.5.1 </tspan>
<tspan x="10" y="186">  │ │ └─┬ dom-serializer@0.1.0 </tspan>
<tspan x="10" y="202">  │ │   └── domelementtype@1.1.3 </tspan>
<tspan x="10" y="218">  │ ├── entities@1.1.1 </tspan>
<tspan x="10" y="234">  │ ├── inherits@2.0.3 </tspan>
<tspan x="10" y="250">  │ └─┬ readable-stream@2.2.9 </tspan>
<tspan x="10" y="266">  │   ├── buffer-shims@1.0.0 </tspan>
<tspan x="10" y="282">  │   ├── core-util-is@1.0.2 </tspan>
<tspan x="10" y="298">  │   ├── isarray@1.0.0 </tspan>
<tspan x="10" y="314">  │   ├── process-nextick-args@1.0.7 </tspan>
<tspan x="10" y="330">  │   ├── string_decoder@1.0.0 </tspan>
<tspan x="10" y="346">  │   └── util-deprecate@1.0.2 </tspan>
<tspan x="10" y="362">  ├─┬ markdown-to-ast@3.4.0 </tspan>
<tspan x="10" y="378">  │ ├─┬ debug@2.6.3 </tspan>
<tspan x="10" y="394">  │ │ └── ms@0.7.2 </tspan>
<tspan x="10" y="410">  │ ├─┬ remark@5.1.0 </tspan>
<tspan x="10" y="426">  │ │ ├─┬ remark-parse@1.1.0 </tspan>
<tspan x="10" y="442">  │ │ │ ├── collapse-white-space@1.0.2 </tspan>
<tspan x="10" y="458">  │ │ │ ├── extend@3.0.0 </tspan>
<tspan x="10" y="474">  │ │ │ ├─┬ parse-entities@1.1.0 </tspan>
<tspan x="10" y="490">  │ │ │ │ ├── character-entities@1.2.0 </tspan>
<tspan x="10" y="506">  │ │ │ │ ├── character-entities-legacy@1.1.0 </tspan>
<tspan x="10" y="522">  │ │ │ │ ├── character-reference-invalid@1.1.0 </tspan>
<tspan x="10" y="538">  │ │ │ │ ├─┬ is-alphanumerical@1.0.0 </tspan>
<tspan x="10" y="554">  │ │ │ │ │ └── is-alphabetical@1.0.0 </tspan>
<tspan x="10" y="570">  │ │ │ │ ├── is-decimal@1.0.0 </tspan>
<tspan x="10" y="586">  │ │ │ │ └── is-hexadecimal@1.0.0 </tspan>
<tspan x="10" y="602">  │ │ │ ├── repeat-string@1.6.1 </tspan>
<tspan x="10" y="618">  │ │ │ ├── trim@0.0.1 </tspan>
<tspan x="10" y="634">  │ │ │ ├── trim-trailing-lines@1.1.0 </tspan>
<tspan x="10" y="650">  │ │ │ ├─┬ unherit@1.1.0 </tspan>
<tspan x="10" y="666">  │ │ │ │ └── xtend@4.0.1 </tspan>
<tspan x="10" y="682">  │ │ │ ├─┬ unist-util-remove-position@1.1.0 </tspan>
<tspan x="10" y="698">  │ │ │ │ └── unist-util-visit@1.1.1 </tspan>
<tspan x="10" y="714">  │ │ │ └── vfile-location@2.0.1 </tspan>
<tspan x="10" y="730">  │ │ ├─┬ remark-stringify@1.1.0 </tspan>
<tspan x="10" y="746">  │ │ │ ├── ccount@1.0.1 </tspan>
<tspan x="10" y="762">  │ │ │ ├── longest-streak@1.0.0 </tspan>
<tspan x="10" y="778">  │ │ │ ├── markdown-table@0.4.0 </tspan>
<tspan x="10" y="794">  │ │ │ └─┬ stringify-entities@1.3.0 </tspan>
<tspan x="10" y="810">  │ │ │   └── character-entities-html4@1.1.0 </tspan>
<tspan x="10" y="826">  │ │ └─┬ unified@4.2.1 </tspan>
<tspan x="10" y="842">  │ │   ├── bail@1.0.1 </tspan>
<tspan x="10" y="858">  │ │   ├─┬ has@1.0.1 </tspan>
<tspan x="10" y="874">  │ │   │ └── function-bind@1.1.0 </tspan>
<tspan x="10" y="890">  │ │   ├─┬ once@1.4.0 </tspan>
<tspan x="10" y="906">  │ │   │ └── wrappy@1.0.2 </tspan>
<tspan x="10" y="922">  │ │   ├── trough@1.0.0 </tspan>
<tspan x="10" y="938">  │ │   └── vfile@1.4.0 </tspan>
<tspan x="10" y="954">  │ ├─┬ structured-source@3.0.2 </tspan>
<tspan x="10" y="970">  │ │ └── boundary@1.0.1 </tspan>
<tspan x="10" y="986">  │ └── traverse@0.6.6 </tspan>
<tspan x="10" y="1002">  ├── minimist@1.2.0 </tspan>
<tspan x="10" y="1018">  ├── underscore@1.8.3 </tspan>
<tspan x="10" y="1034">  └── update-section@0.3.3</tspan>
</text>
</svg>
